# xmcd CD database file
#
# Track frame offsets:
#	150
#	16931
#	33071
#	53546
#	72979
#	94454
#	111440
#	129753
#	151255
#	173028
#	193738
#	211787
#	233085
#
# Disc length: 3439 seconds
#
# Revision: 9
# Processed by: cddbd v1.4PL0 Copyright (c) Steve Scherf et al.
# Submitted via: Feurio! 1.63 - http://www.feurio.com
#
DISCID=a00d6d0d
DTITLE=Eddie Kirkland - The Complete Trix Recordings (Disk1/2) - Front And 
DTITLE=Center
DYEAR=1999
DGENRE=Blues
TTITLE0=When I Frist Started Hoboing
TTITLE1=I Tried To Be A Friend
TTITLE2=Eddie´s Boogie Chillen
TTITLE3=Nora
TTITLE4=I Need A Lover, Not Just A Friend
TTITLE5=I Walked Twelve Miles
TTITLE6=I´ve Got An Evil Woman
TTITLE7=Going Back To Mississppi
TTITLE8=Lonesome Talking Blues
TTITLE9=Detroit Rock Island Line
TTITLE10=Jerdine
TTITLE11=Have You Seen That Lonesome Train
TTITLE12=Going To The River, See Can I Look Across
EXTD=
EXTT0=
EXTT1=
EXTT2=
EXTT3=
EXTT4=
EXTT5=
EXTT6=
EXTT7=
EXTT8=
EXTT9=
EXTT10=
EXTT11=
EXTT12=
PLAYORDER=
